<?xml version="1.0" standalone="no"?>
<!DOCTYPE svg PUBLIC "-//W3C//DTD SVG 20010904//EN"
 "http://www.w3.org/TR/2001/REC-SVG-20010904/DTD/svg10.dtd">
<svg version="1.0" xmlns="http://www.w3.org/2000/svg"
 width="194.000000pt" height="116.000000pt" viewBox="0 0 194.000000 116.000000"
 preserveAspectRatio="xMidYMid meet">

<g transform="translate(0.000000,116.000000) scale(0.100000,-0.100000)"
fill="#000000" stroke="none">
<path d="M0 806 c0 -33 0 -33 56 -39 57 -6 89 -24 99 -58 5 -14 16 -19 46 -19
l39 0 0 75 0 75 -120 0 -120 0 0 -34z"/>
<path d="M320 827 c0 -22 29 -56 52 -59 19 -2 22 -9 21 -40 0 -38 0 -38 38
-38 l39 0 0 75 0 75 -75 0 c-54 0 -75 -4 -75 -13z"/>
<path d="M1590 581 l0 -261 50 0 50 0 0 124 c0 110 2 126 21 150 14 18 30 26
52 26 65 0 77 -30 77 -186 l0 -114 50 0 50 0 0 128 c0 143 -9 188 -45 222 -48
45 -172 34 -193 -18 -4 -9 -9 28 -12 83 l-5 100 -47 3 -48 3 0 -260z"/>
<path d="M1358 753 c-3 -56 -4 -58 -30 -58 -25 1 -28 -3 -28 -32 0 -30 3 -33
30 -33 l30 0 0 -130 c0 -126 1 -132 25 -155 21 -22 33 -25 90 -25 l66 0 -3 38
c-2 29 -7 36 -20 34 -10 -2 -27 2 -38 8 -18 10 -20 21 -20 120 l0 110 40 0
c38 0 40 2 40 30 0 28 -2 30 -40 30 l-40 0 0 60 0 60 -50 0 -49 0 -3 -57z"/>
<path d="M705 699 c-35 -10 -79 -53 -90 -86 -6 -22 -4 -23 43 -23 42 0 52 4
66 25 13 20 25 25 59 25 48 0 67 -13 67 -47 0 -28 -20 -39 -90 -48 -119 -14
-160 -45 -160 -117 0 -32 7 -47 35 -75 35 -35 37 -35 104 -31 47 2 76 9 89 21
23 21 32 22 32 3 0 -10 15 -15 48 -18 l47 -3 -3 155 c-3 174 -10 193 -73 216
-39 14 -130 16 -174 3z m131 -284 c-34 -52 -136 -37 -136 19 0 32 17 44 80 56
30 6 56 13 59 16 14 14 11 -70 -3 -91z"/>
<path d="M1183 699 c-17 -5 -43 -23 -57 -40 l-26 -31 0 37 0 36 -46 -3 -45 -3
0 -185 0 -185 48 0 48 0 2 100 c2 55 5 110 8 122 9 37 45 63 87 63 38 0 38 0
38 40 0 22 0 43 1 48 0 11 -22 11 -58 1z"/>
<path d="M0 648 c1 -38 2 -41 14 -26 7 10 25 22 39 27 43 16 35 41 -13 41
l-40 0 0 -42z"/>
<path d="M445 648 c-54 -29 -59 -68 -10 -68 34 0 35 1 35 40 0 22 -1 40 -2 40
-2 0 -12 -6 -23 -12z"/>
<path d="M0 565 c0 -11 11 -15 40 -15 29 0 40 4 40 15 0 11 -11 15 -40 15 -29
0 -40 -4 -40 -15z"/>
<path d="M400 435 l0 -115 35 0 35 0 0 115 0 115 -35 0 -35 0 0 -115z"/>
<path d="M0 395 l0 -75 159 0 c153 0 159 1 154 20 -9 34 -34 45 -114 51 -83 6
-119 24 -119 61 0 14 -8 18 -40 18 l-40 0 0 -75z"/>
</g>
</svg>
